<svg width="100" height="44" viewBox="0 0 100 44" fill="none" xmlns="http://www.w3.org/2000/svg">
<path d="M0 39.7184H19.4354V43.9413H0V39.7184Z" fill="#016197"/>
<path d="M4.75476 16.193V9.45096C4.75476 6.26051 6.19949 4.0934 10.0521 4.0934C13.9047 4.0934 15.3495 6.26051 15.3495 9.45096V16.193H4.75476ZM0.0593872 26.1256C0.0593872 32.1453 3.67121 35.2755 11.557 35.2755C14.9883 35.2755 17.1554 34.7939 18.9011 34.3124V29.918C17.2758 30.4598 14.7475 31.0015 11.7978 31.0015C6.62087 31.0015 4.75476 29.2558 4.75476 25.8848V20.1058H19.9244V9.39075C19.9244 4.03321 17.035 0 10.0521 0C3.06924 0 0.0593872 4.03321 0.0593872 9.39075V26.1256Z" fill="#016197"/>
<path d="M27.6545 2.71366V43.9439H32.4101V34.9745H38.3696C43.667 34.9745 47.2788 31.784 47.2788 26.0051V8.36736C47.2788 3.19041 44.0884 0.481542 39.2726 0.481542C35.6334 0.327376 31.2285 0.874145 27.6545 2.71366ZM42.5232 9.02953V25.5837C42.5232 28.9548 40.6571 30.6403 37.2259 30.6403H32.4101V5.60631C35.3163 4.80115 36.1912 4.77813 38.3094 4.87593C40.8952 4.99532 42.5232 6.14007 42.5232 9.02953Z" fill="#016197"/>
<path d="M55.3947 1.14375V5.53814C57.02 4.93618 60.2105 4.3342 63.2203 4.3342C68.0963 4.3342 69.24 5.95953 69.3002 8.90919V13.9657L61.0532 16.2532C55.9365 17.698 53.7092 20.3466 53.7092 24.6808V26.6071C53.7092 31.9045 56.1773 34.8542 62.0766 34.8542C65.9894 34.8542 67.7351 33.6502 69.3604 32.2055V34.6736H73.8752V8.96938C73.8752 3.31084 71.046 0 63.4611 0C60.1503 0 57.02 0.601972 55.3947 1.14375ZM69.24 28.8946C67.8555 30.0384 65.6282 31.0617 63.0397 31.0617C59.5483 31.0617 58.4046 29.5568 58.4046 26.6673V24.8614C58.4046 22.2128 59.3075 20.8884 62.7989 19.8651L69.24 18.0591V28.8946Z" fill="#016197"/>
<path d="M88.3304 0.481762C83.5224 0.842093 80.324 3.19062 80.324 8.36757V25.618C80.324 31.3969 83.9358 34.5873 89.2332 34.5873C89.2332 34.5873 93.9081 34.5629 95.1928 34.5873C95.1732 36.9408 95.5504 38.5543 92.2917 39.7564C89.033 40.9584 82.3376 39.2896 82.3376 39.2896L81.9918 43.1668C86.2155 43.8526 93.189 44.5398 96.4421 42.0456C99.6952 39.5515 99.9933 37.349 99.9483 34.363L100 2.78281C96.3623 0.702812 93.1385 0.121431 88.3304 0.481762ZM89.2933 4.87604C91.4803 4.63491 93.3351 4.82444 95.1928 5.60635V30.2532H90.3769C86.9456 30.2532 85.0798 28.5677 85.0798 25.1966V9.02942C85.0798 6.13995 85.8621 5.25437 89.2933 4.87604Z" fill="#016197"/>
</svg>
