<svg width="40" height="26" viewBox="0 0 40 26" fill="none" xmlns="http://www.w3.org/2000/svg">
<rect width="39.8667" height="26" rx="3.46667" fill="black"/>
<path d="M33.8781 7.9681C33.7989 7.97498 33.7195 7.97933 33.64 7.98102C32.1635 6.83092 31.3667 6.09797 29.3667 5.49995C22.9213 3.57272 18.2918 8.46938 17.6059 11.6988C17.2493 11.6858 16.9337 11.777 16.5982 11.8952C15.6467 12.2501 14.8726 12.9837 14.4383 13.8961L14.4069 13.9633C14.1376 14.5355 14.0361 15.1016 14.032 15.7322L14.0317 15.8077C14.0215 16.8977 14.4124 17.9467 15.1729 18.7349C16.0565 19.5789 17.0834 19.9212 18.2966 19.9062C19.2368 19.8756 20.2201 19.4203 20.864 18.7332L20.9488 18.6361C21.6518 17.8344 21.9966 16.884 22.0022 15.821L22.0024 15.7493C22.0037 15.4552 21.9927 15.173 21.9384 14.8835L21.9193 14.79C21.8155 14.2829 21.6078 13.8344 21.3464 13.3904C20.9223 12.7266 20.187 12.0768 19.4029 11.8884L19.3313 11.8785C19.4808 11.3131 19.7207 10.7656 20.0104 10.2586L20.0502 10.1891C20.422 9.52202 20.8865 8.91516 21.4614 8.41032L21.5239 8.35591C22.8869 7.16942 24.5925 6.55219 26.3958 6.54962L26.4775 6.5497C26.6283 6.54982 26.7791 6.55078 26.9299 6.55422C28.6476 6.61348 30.5718 7.37277 31.7639 8.63462L31.84 8.71536L31.8486 8.72344C31.9654 8.83343 32.0769 8.93844 32.1635 9.0748C32.1717 9.15116 32.1717 9.15116 32.1478 9.22532C32.1005 9.35469 32.0845 9.46603 32.0841 9.60433L32.0848 9.67687L32.0856 9.81335C32.107 10.2551 32.3193 10.6373 32.6308 10.9439C33.0026 11.2399 33.4148 11.3804 33.8888 11.3753C34.3474 11.3386 34.7639 11.1604 35.084 10.8226L35.1469 10.7283C35.4252 10.3658 35.5345 9.9886 35.5199 9.53141C35.4755 9.09724 35.4007 8.71536 35.084 8.42845C34.7927 8.16463 34.4839 7.9681 33.8781 7.9681Z" fill="#9A9D9E"/>
<path d="M23.2852 9.32642C27.3227 9.32642 27.3227 9.32642 27.9557 9.52636C27.9846 9.53528 28.0135 9.54421 28.0432 9.5534C28.562 9.72193 29.0678 9.96781 29.5036 10.2969C29.5344 10.3199 29.5653 10.3428 29.5971 10.3664C30.7291 11.2497 31.4284 12.4688 31.6333 13.8846C31.7858 15.1793 31.4847 16.5815 30.675 17.6226C30.6441 17.661 30.6131 17.6993 30.5819 17.7374C30.5652 17.7583 30.5485 17.7792 30.5312 17.8007C29.6349 18.9117 28.4302 19.5494 27.0234 19.7503C25.7898 19.7503 24.5562 19.7503 23.2852 19.7503C23.2852 16.3104 23.2852 12.8705 23.2852 9.32642ZM25.4059 11.4471C25.4059 13.4874 25.4059 15.5276 25.4059 17.6296C27.2535 17.6303 27.2535 17.6303 28.6768 16.6951C28.702 16.6704 28.7271 16.6458 28.7529 16.6204C29.3156 16.0292 29.5685 15.1987 29.5496 14.3947C29.5012 13.5684 29.141 12.8245 28.542 12.2511C27.5982 11.4303 26.6876 11.4471 25.4059 11.4471Z" fill="white"/>
<path d="M13.6349 10.327C13.7239 10.4048 13.7239 10.4048 13.7958 10.5126C13.5156 10.9919 13.2297 11.4673 12.9374 11.9394C12.9139 11.9773 12.8905 12.0152 12.8663 12.0543C12.8454 12.0881 12.8244 12.1218 12.8029 12.1566C12.7536 12.2352 12.7536 12.2352 12.7175 12.3099C12.5978 12.2893 12.5487 12.2575 12.4703 12.1661C11.9423 11.6178 11.1288 11.3447 10.3816 11.3242C9.50114 11.319 8.7043 11.6176 8.04467 12.202C8.02049 12.2228 7.9963 12.2436 7.97138 12.2651C7.56854 12.6366 7.323 13.129 7.14606 13.6398C7.13309 13.676 7.12011 13.7122 7.10675 13.7495C6.87032 14.5583 7.03595 15.4664 7.42912 16.1942C7.53349 16.3738 7.66027 16.5356 7.79306 16.6951C7.82128 16.7307 7.8495 16.7663 7.87857 16.8029C8.43429 17.439 9.26628 17.7759 10.0935 17.8453C10.9974 17.9051 11.8238 17.56 12.5018 16.9827C12.5616 16.9346 12.6215 16.8866 12.6815 16.8389C12.9308 17.2167 13.1652 17.6035 13.3994 17.9908C13.4122 18.012 13.425 18.0332 13.4382 18.0551C13.4752 18.1164 13.5121 18.1777 13.5489 18.2391C13.6064 18.3328 13.667 18.4232 13.729 18.514C13.751 18.5543 13.7731 18.5946 13.7958 18.6361C13.7434 18.7879 13.6312 18.8601 13.5038 18.9484C13.4816 18.9639 13.4594 18.9795 13.4365 18.9955C12.2125 19.8375 10.744 20.1759 9.27676 19.9125C8.8599 19.8286 8.46788 19.7117 8.08062 19.5347C8.05791 19.5246 8.0352 19.5145 8.0118 19.504C7.41117 19.2336 6.89009 18.8512 6.42717 18.3845C6.40091 18.3581 6.40091 18.3581 6.37413 18.3312C5.83216 17.7792 5.42158 17.1022 5.16911 16.3716C5.16096 16.348 5.15281 16.3245 5.14441 16.3002C4.69084 14.9547 4.79974 13.4745 5.42072 12.202C5.43199 12.1788 5.44325 12.1556 5.45486 12.1317C5.72545 11.5815 6.09632 11.1198 6.535 10.6924C6.55256 10.6728 6.57012 10.6532 6.58822 10.633C8.38653 8.69174 11.6489 8.77471 13.6349 10.327Z" fill="white"/>
<path d="M17.6059 11.6987C17.573 11.8991 17.5342 12.096 17.4828 12.2926C17.4154 12.5562 17.3737 12.8152 17.3495 13.0863C17.3465 13.1187 17.3435 13.1511 17.3404 13.1844C17.3281 13.3177 17.3161 13.4509 17.3065 13.5844C17.2644 14.1506 17.2644 14.1506 17.1293 14.3117C17.0389 14.3744 16.9502 14.4194 16.8511 14.4665C16.5275 14.7359 16.2792 15.1082 16.2286 15.5329C16.223 15.636 16.2214 15.7381 16.2221 15.8414C16.2224 15.896 16.2224 15.896 16.2227 15.9517C16.2342 16.4358 16.4132 16.8173 16.7468 17.1702C17.1288 17.5313 17.6086 17.6925 18.132 17.678C18.621 17.6275 19.068 17.4161 19.4032 17.0545C19.7689 16.5885 19.8484 16.0845 19.7985 15.5089C19.7784 15.3786 19.7454 15.269 19.6907 15.1494C19.669 15.101 19.669 15.101 19.6469 15.0516C19.5002 14.7553 19.2992 14.5078 19.0055 14.3497C18.9231 14.2919 18.903 14.2646 18.8807 14.1652C18.8768 14.0364 18.8863 13.9114 18.8999 13.7835C18.9028 13.7539 18.9057 13.7243 18.9087 13.6938C18.9713 13.0805 19.0661 12.4536 19.2953 11.8785C19.4846 11.8996 19.6355 11.9614 19.8053 12.0425C19.8323 12.0553 19.8592 12.0681 19.887 12.0814C20.7975 12.5272 21.4709 13.3741 21.8008 14.3237C21.8489 14.4774 21.887 14.6322 21.9193 14.79C21.9256 14.8208 21.9319 14.8517 21.9384 14.8835C21.9927 15.173 22.0037 15.4552 22.0024 15.7492C22.0023 15.7848 22.0023 15.7848 22.0022 15.821C21.9966 16.884 21.6518 17.8344 20.9488 18.636C20.9208 18.6681 20.8928 18.7002 20.864 18.7332C20.22 19.4203 19.2368 19.8756 18.2966 19.9062C17.0834 19.9211 16.0565 19.5788 15.1729 18.7349C14.4124 17.9467 14.0215 16.8977 14.0317 15.8077C14.0318 15.7827 14.0319 15.7578 14.032 15.7322C14.0361 15.1016 14.1376 14.5355 14.4069 13.9632C14.4172 13.9411 14.4276 13.9189 14.4383 13.8961C14.8726 12.9837 15.6467 12.25 16.5982 11.8952C16.9337 11.777 17.2493 11.6858 17.6059 11.6987Z" fill="white"/>
<path d="M32.7744 11.9503C33.4505 11.9503 34.1266 11.9503 34.8233 11.9503C34.8233 14.5243 34.8233 17.0983 34.8233 19.7503C34.1471 19.7503 33.471 19.7503 32.7744 19.7503C32.7744 17.1763 32.7744 14.6023 32.7744 11.9503Z" fill="white"/>
</svg>
