<svg width="44" height="32" viewBox="0 0 44 32" fill="none" xmlns="http://www.w3.org/2000/svg">
<path d="M44 26.8889C44 28.1855 43.4849 29.429 42.5681 30.3459C41.6512 31.2627 40.4077 31.7778 39.1111 31.7778H4.88889C3.59227 31.7778 2.34877 31.2627 1.43192 30.3459C0.515078 29.429 0 28.1855 0 26.8889V4.88889C0 3.59227 0.515078 2.34877 1.43192 1.43192C2.34877 0.515078 3.59227 0 4.88889 0H39.1111C40.4077 0 41.6512 0.515078 42.5681 1.43192C43.4849 2.34877 44 3.59227 44 4.88889V26.8889Z" fill="#009B3A"/>
<path d="M40.0009 15.8889L22 29.4849L3.99908 15.8889L22 2.29167L40.0009 15.8889Z" fill="#FEDF01"/>
<path d="M21.9707 23.6889C26.33 23.6889 29.8639 20.155 29.8639 15.7958C29.8639 11.4365 26.33 7.90267 21.9707 7.90267C17.6115 7.90267 14.0776 11.4365 14.0776 15.7958C14.0776 20.155 17.6115 23.6889 21.9707 23.6889Z" fill="#002776"/>
<path d="M15.0052 12.0839C14.5951 12.8564 14.3175 13.6921 14.1839 14.5564C19.0666 14.202 25.6935 16.8677 28.5376 20.1726C29.029 19.4343 29.3932 18.6081 29.6169 17.7232C26.1066 14.2912 19.9405 12.0643 15.0052 12.0839Z" fill="#CBE9D4"/>
<path d="M14.6667 16.1736H15.8889V17.3958H14.6667V16.1736ZM15.8889 18.618H17.1111V19.8402H15.8889V18.618Z" fill="#88C9F9"/>
<path d="M18.3333 16.1736H19.5556V17.3958H18.3333V16.1736ZM20.7778 17.3958H22V18.618H20.7778V17.3958ZM25.6667 19.8402H26.8889V21.0624H25.6667V19.8402ZM22 21.0624H23.2222V22.2847H22V21.0624ZM25.6667 13.7291H26.8889V14.9513H25.6667V13.7291Z" fill="#55ACEE"/>
<path d="M23.2222 18.618H24.4444V19.8402H23.2222V18.618Z" fill="#3B88C3"/>
</svg>
