<svg width="44" height="31" viewBox="0 0 44 31" fill="none" xmlns="http://www.w3.org/2000/svg">
<path d="M0 15.125V22.6875C0 26.8641 2.31894 30.25 6.875 30.25H37.125C41.6811 30.25 44 26.8641 44 22.6875V15.125H0Z" fill="#EC1C24"/>
<path d="M37.125 0H15.8125V15.125H44V7.5625C44 3.38594 41.6811 0 37.125 0Z" fill="#E6E7E8"/>
<path d="M15.8125 0H6.875C2.31894 0 0 3.38594 0 7.5625V15.125H15.8125V0Z" fill="#2B3990"/>
<path d="M7.92 2.74794L9.46481 5.87881L12.9229 6.38688L10.4218 8.82612L11.0131 12.2636L7.91931 10.6384L4.82556 12.2636L5.41681 8.82612L2.915 6.38688L6.37313 5.87881L7.92 2.74794Z" fill="#E6E7E8"/>
</svg>
